<?xml version="1.0" encoding="utf-8"?>
<!-- Generator: Adobe Illustrator 26.5.0, SVG Export Plug-In . SVG Version: 6.00 Build 0)  -->
<svg version="1.1" id="Layer_2" xmlns="http://www.w3.org/2000/svg" xmlns:xlink="http://www.w3.org/1999/xlink" x="0px" y="0px"
	 viewBox="0 0 1000 800" style="enable-background:new 0 0 1000 800;" xml:space="preserve">
<style type="text/css">
	.st0{fill:#8CC542;}
	.st1{fill:#74A537;}
</style>
<g id="XMLID_1695_">
	<g id="XMLID_2555_">
		<path id="XMLID_2561_" class="st0" d="M373.91,291.77c-41.54-9.23-51.35-30.58-51.35-30.58s12.56,65.25,28.27,109.05
			c1.4,3.91,2.94,7.6,4.56,11.13c30.85-30,71.36-50.1,116.43-55.19C445.58,302.47,405.45,298.77,373.91,291.77z"/>
		<path id="XMLID_2560_" class="st0" d="M637.63,385.52c1.39-3.25,2.73-6.62,3.98-10.11c19.92-55.52,35.84-138.23,35.84-138.23
			s-12.43,27.06-65.09,38.76c-42.39,9.42-97.03,14.1-129.92,49.33c3.97-0.24,7.97-0.37,12-0.37
			C550.62,324.9,601.37,348.14,637.63,385.52z"/>
		<path id="XMLID_2559_" class="st1" d="M432.18,440.63c12.27,0,23.72-3.48,33.43-9.51c-3.82-26.24-17.49-61.97-61.71-78.77
			c0,0,30.36,4.21,53.3,30.04c-0.09-1.59-0.15-3.19-0.15-4.8c0-9.63,1.7-18.87,4.8-27.43c1.85-5.1,4.2-9.97,7-14.53
			c1.55-2.66,3.21-5.19,4.94-7.61c-0.65-0.63-1.32-1.24-1.99-1.85c-45.07,5.09-85.58,25.19-116.43,55.19
			C375.78,425.76,412.23,440.63,432.18,440.63z"/>
		<g id="XMLID_1694_">
			<path id="XMLID_1737_" class="st1" d="M650.36,378.55c-0.58,1.62-1.2,3.24-1.83,4.86l0.08,0.08l-2.42,5.65
				c-0.01,0.01-0.01,0.03-0.02,0.04l-5.5,12.83l-0.42-0.44c-11.34,21.55-26.69,39.39-44.96,52.17
				c-25.48,27.63-61.98,44.95-102.53,44.95c-58.1,0-107.89-35.54-128.84-86.06c-3.92-4.81-7.62-10.09-11-15.89l-0.48,0.47
				l-5.5-11.96c-0.01-0.01-0.01-0.02-0.02-0.03l-2.73-5.94l0.11-0.1c-0.79-1.93-1.53-3.86-2.23-5.81
				c-3.67-10.24-7.16-21.56-10.36-32.93c-0.71,6.17-1.09,12.45-1.09,18.81c0,89.55,72.59,162.14,162.14,162.14
				c87.39,0,158.61-69.13,162-155.69C653.32,370.1,651.85,374.4,650.36,378.55z"/>
			<path id="XMLID_1738_" class="st0" d="M375.92,282.69c0.09,0.02,0.18,0.04,0.26,0.06c24.93-37.89,67.82-62.92,116.57-62.92
				c42.67,0,80.86,19.18,106.44,49.37c3.8-0.76,7.51-1.53,11.14-2.34c4.74-1.05,9.1-2.24,13.15-3.51
				c-29.51-40.16-77.07-66.23-130.73-66.23c-58.88,0-110.43,31.39-138.83,78.35C359.78,278.17,367.02,280.71,375.92,282.69z"/>
		</g>
		<path id="XMLID_2556_" class="st1" d="M462.83,356.75c-2.92,8.06-4.58,16.73-4.76,25.75c12.87,12.52,23.21,26.45,30.1,36.82
			c27.07-58.4,86.15-66.59,86.15-66.59c-44.53,29.06-57.85,66.22-60.79,93.89c-0.53,4.95-0.72,9.58-0.7,13.82
			c0.5,0.17,1,0.33,1.51,0.49c7.62,2.4,15.73,3.7,24.14,3.7c25.89,0,73.68-19.73,99.14-79.12c-36.25-37.38-87.01-60.62-143.19-60.62
			c-4.03,0-8.03,0.13-12,0.37c-4.67,5-8.9,10.62-12.6,16.96C467.04,346.79,464.69,351.65,462.83,356.75z M486.45,354.2
			c10.21,0,18.48,8.27,18.48,18.48c0,10.21-8.27,18.48-18.48,18.48s-18.48-8.27-18.48-18.48
			C467.97,362.48,476.24,354.2,486.45,354.2z"/>
	</g>
</g>
</svg>
